<?xml version="1.0" encoding="utf-8"?>
<!-- Generated by IcoMoon.io -->
<!DOCTYPE svg PUBLIC "-//W3C//DTD SVG 1.1//EN" "http://www.w3.org/Graphics/SVG/1.1/DTD/svg11.dtd">
<svg version="1.1" xmlns="http://www.w3.org/2000/svg" xmlns:xlink="http://www.w3.org/1999/xlink" width="14" height="14" viewBox="0 0 14 14">
	<path d="M7 14c3.866 0 7-3.134 7-7s-3.134-7-7-7-7 3.134-7 7 3.134 7 7 7zM7 1.313c3.141 0 5.688 2.546 5.688 5.688s-2.546 5.688-5.688 5.688-5.688-2.546-5.688-5.688 2.546-5.688 5.688-5.688zM2.625 7v0.875c0 1.925 1.575 3.5 3.5 3.5h1.75c1.925 0 3.5-1.575 3.5-3.5v-0.875h-8.75zM5.25 10.349c-0.363-0.129-0.696-0.339-0.978-0.621-0.498-0.498-0.772-1.156-0.772-1.853h1.75v2.474zM7.875 10.5h-1.75v-2.625h1.75v2.625zM9.728 9.728c-0.282 0.282-0.615 0.492-0.978 0.621v-2.474h1.75c0 0.697-0.274 1.355-0.772 1.853zM3.081 5.25c0 0 0 0 0 0 0.134 0 0.248-0.096 0.27-0.228 0.084-0.502 0.515-0.866 1.024-0.866s0.94 0.364 1.024 0.866c0.022 0.132 0.136 0.228 0.27 0.228 0.134 0 0.248-0.096 0.27-0.228 0.015-0.088 0.022-0.177 0.022-0.264 0-0.874-0.711-1.586-1.586-1.586s-1.586 0.711-1.586 1.586c0 0.087 0.007 0.176 0.022 0.264 0.022 0.132 0.136 0.228 0.27 0.228zM8.331 5.25c0 0 0 0 0 0 0.134 0 0.248-0.096 0.27-0.228 0.084-0.502 0.515-0.866 1.024-0.866s0.94 0.364 1.024 0.866c0.022 0.132 0.136 0.228 0.27 0.228s0.248-0.096 0.27-0.228c0.015-0.088 0.022-0.177 0.022-0.264 0-0.874-0.711-1.586-1.586-1.586s-1.586 0.711-1.586 1.586c0 0.087 0.007 0.176 0.022 0.264 0.022 0.132 0.136 0.228 0.27 0.228z" />
</svg>
