<?xml version="1.0" encoding="utf-8"?>
<!-- Generated by IcoMoon.io -->
<!DOCTYPE svg PUBLIC "-//W3C//DTD SVG 1.1//EN" "http://www.w3.org/Graphics/SVG/1.1/DTD/svg11.dtd">
<svg version="1.1" xmlns="http://www.w3.org/2000/svg" xmlns:xlink="http://www.w3.org/1999/xlink" width="14" height="14" viewBox="0 0 14 14">
	<path d="M7 0l-7 4.375h14l-7-4.375zM10.938 5.25l0.438 0.875v5.25h1.75v-5.25l0.438-0.875h-2.625zM7.438 5.25l0.438 0.875v5.25h1.75v-5.25l0.438-0.875h-2.625zM3.938 5.25l0.438 0.875v5.25h1.75v-5.25l0.438-0.875h-2.625zM0.438 5.25l0.438 0.875v5.25h1.75v-5.25l0.438-0.875h-2.625zM0.438 12.25l-0.438 1.75h14l-0.438-1.75h-13.125zM7.875 2.625c0 0.483-0.392 0.875-0.875 0.875s-0.875-0.392-0.875-0.875 0.392-0.875 0.875-0.875c0.483 0 0.875 0.392 0.875 0.875z" />
</svg>
