<?xml version="1.0" encoding="utf-8"?>
<!-- Generated by IcoMoon.io -->
<!DOCTYPE svg PUBLIC "-//W3C//DTD SVG 1.1//EN" "http://www.w3.org/Graphics/SVG/1.1/DTD/svg11.dtd">
<svg version="1.1" xmlns="http://www.w3.org/2000/svg" xmlns:xlink="http://www.w3.org/1999/xlink" width="14" height="14" viewBox="0 0 14 14">
	<path d="M12.595 4.442c-0.003-0.007-0.006-0.013-0.009-0.020l0.013 0.002-0.003 0.018zM11.047 9.72l-2.042 0.085-1.067-1.875 1.104-1.993 2.138 0.071 0.913 1.863-1.046 1.849zM5.56 7.903l-1.071-1.939 1.12-1.869 2.284-0.035 1.122 1.861-1.103 1.989-2.352-0.008zM5.607 4.064l-0.844-1.454 1.122-1.369 1.958-0.063 1.043 1.292-0.999 1.558-2.28 0.035zM4.539 9.734l-1.809-0.177-0.871-1.743 0.76-1.767 1.84-0.070 1.072 1.939-0.991 1.817zM10.855 2.695l0.173-0.344c0.656 0.569 1.189 1.274 1.558 2.072l-0.648-0.103-1.083-1.624zM8.918 2.461l-1.045-1.294c0.026-0.032 0.165-0.201 0.168-0.203-0.937-0.157-1.791-0.077-2.354 0.056 0.004 0.003 0.14 0.174 0.168 0.21l-1.122 1.369-1.673 0.282-0.149-0.456-0.026 0.008c1.091-0.984 2.531-1.588 4.116-1.588 1.53 0 2.926 0.561 4.003 1.485l-0.177 0.352-1.908-0.219zM2.030 4.472l-0.703 0.166 0.008 0.031 0.691-0.163 0.569 1.519-0.763 1.773c-0.103-0.010-0.902-0.087-0.902-0.038 0.14 1.175 0.586 2.197 1.354 3.153l0.451-1.323 1.806 0.176 1.141 1.731-0.787 1.282c-2.36-0.862-4.050-3.121-4.050-5.779 0-1.814 0.789-3.439 2.037-4.566l0.151 0.465-1.001 1.573zM7.813 11.565l0.939 1.315 0.027-0.019-0.933-1.305 1.159-1.719 2.040-0.084c0.041 0.092 0.564 1.268 0.56 1.268 0.861-1.008 1.293-2.017 1.449-3.168-0.002 0-0.837 0.003-0.936 0.004l-0.914-1.867 0.737-1.637 0.65 0.104 0.002-0.014c0.357 0.78 0.561 1.644 0.561 2.558 0 3.4-2.757 6.157-6.157 6.157-0.73 0-1.427-0.134-2.077-0.367l0.786-1.28 2.105 0.055zM4.915 12.804l-0.027-0.017 0.005-0.009c0.010 0.004 0.021 0.007 0.031 0.011l-0.009 0.014zM2.879 2.432l0.005-0.002c-0.002 0.001-0.003 0.003-0.004 0.003l-0.001-0.002zM11.009 2.317l0.028 0.014-0.009 0.020c-0.009-0.007-0.016-0.015-0.025-0.022l0.006-0.011z" />
</svg>
